<?xml version="1.0" encoding="utf-8"?>
<!-- Generator: Adobe Illustrator 27.3.1, SVG Export Plug-In . SVG Version: 6.00 Build 0)  -->
<svg version="1.1" id="mdi-alpha-g-circle" xmlns="http://www.w3.org/2000/svg" xmlns:xlink="http://www.w3.org/1999/xlink" x="0px"
	 y="0px" viewBox="0 0 24 24" style="enable-background:new 0 0 24 24;" xml:space="preserve">
<style type="text/css">
	.st0{fill:#FF7F50;}
	.st1{fill:#FFFFFF;}
</style>
<path class="st0" d="M12,2c5.5,0,10,4.5,10,10s-4.5,10-10,10S2,17.5,2,12S6.5,2,12,2"/>
<g>
	<path class="st1" d="M8,15L8,15c-0.4,0.7-0.9,0.8-1.7,0.8c-1.9,0-2-1.2-2-2.8c0-1.5,0.2-2.5,2-2.5c0.6,0,1.3,0.1,1.6,0.8h0V8.3h1.3
		v7.5H7.9L8,15z M5.6,13c0,1.2,0,1.9,1.1,1.9c1.3,0,1.2-0.6,1.2-1.9c0-1.1-0.1-1.6-1.2-1.6C5.8,11.4,5.6,11.7,5.6,13z"/>
	<path class="st1" d="M11.7,12.6H12l1.5-2h1.4L13,13l2.2,2.8h-1.5L12,13.4h-0.3v2.3h-1.3V8.3h1.3V12.6z"/>
	<path class="st1" d="M16.9,10.5l0,0.7h0c0.2-0.6,0.8-0.7,1.4-0.7c1.1,0,1.4,0.7,1.4,1.6v0.4h-1.2v-0.3c0-0.5,0-0.8-0.6-0.8
		c-0.7,0-1,0.4-0.9,1.1v3.2h-1.3v-5.2H16.9z"/>
</g>
</svg>
