<?xml version="1.0" encoding="utf-8"?>
<!-- Generator: Adobe Illustrator 27.1.1, SVG Export Plug-In . SVG Version: 6.00 Build 0)  -->
<svg version="1.1" id="Layer_1" xmlns="http://www.w3.org/2000/svg" xmlns:xlink="http://www.w3.org/1999/xlink" x="0px" y="0px"
	 viewBox="0 0 700 512" style="enable-background:new 0 0 700 512;" xml:space="preserve">
<style type="text/css">
	.st0{fill:#FFFFFF;}
</style>
<g id="XMLID_00000155857772228973168260000005020623417883905724_">
	<path id="XMLID_00000121969691554272222280000009744169106123076493_" class="st0" d="M205,74.9c20.3,0,38.7,1.7,55.4,5.4
		c16.6,3.5,30.8,9.4,42.8,17.6c11.9,8,21.1,18.9,27.6,32.3c6.5,13.4,9.7,30.1,9.7,49.9c0,21.4-4.9,39.2-14.6,53.6
		c-9.7,14.2-24.1,25.9-43.3,35c26.1,7.5,45.5,20.8,58.2,39.5c12.9,18.9,19.2,41.5,19.2,68.1c0,21.6-4.2,40-12.4,55.6
		c-8.4,15.7-19.6,28.6-33.6,38.5c-14.1,9.9-30.1,17.2-48.2,22.1c-17.9,4.7-36.5,7.2-55.4,7.2H5V74.9H205z M193,246.3
		c16.6,0,30.3-3.8,41.2-11.9c10.7-7.9,15.9-20.8,15.9-38.7c0-9.9-1.7-18.1-5.2-24.4c-3.7-6.4-8.4-11.2-14.4-14.7
		c-6-3.7-12.7-6-20.6-7.5c-7.7-1.5-15.7-2.2-24.1-2.2H98.4v99.3H193V246.3z M198.2,427c9.2,0,17.9-0.8,26.3-2.7
		c8.4-1.8,15.7-4.7,22.1-9c6.2-4.2,11.4-9.7,15.2-16.9c3.8-7.2,5.5-16.4,5.5-27.4c0-21.9-6.2-37.3-18.4-46.9
		c-12.2-9.4-28.6-13.9-48.7-13.9H98.6V427L198.2,427L198.2,427z"/>
	<path id="XMLID_00000132066010382680998200000017712358644343900340_" class="st0" d="M493.6,425.5c12.7,12.4,31,18.6,54.6,18.6
		c17.1,0,31.8-4.4,44-12.9c12.2-8.5,19.7-17.7,22.6-27.3h74.3c-11.9,37-30.1,63.4-54.7,79.3c-24.4,15.9-54.2,23.9-89,23.9
		c-24.3,0-46-3.8-65.6-11.7s-35.8-18.7-49.5-33c-13.4-14.4-23.8-31.3-31.1-51.2c-7.4-19.7-11-41.7-11-65.4
		c0-22.9,3.8-44.5,11.4-64.3c7.7-19.9,18.2-37.2,32.1-51.6c13.9-14.6,30.5-25.9,49.9-34.3c19.2-8.4,40.5-12.6,64.1-12.6
		c25.9,0,48.7,5,68.3,15.2c19.4,10,35.3,23.6,47.9,40.7c12.6,17.1,21.4,36.5,26.9,58.2s7.5,44.5,5.9,68.5H472.6
		C472.6,390.2,480.8,413.3,493.6,425.5z M590.5,264.2c-10-11-26.9-17.1-47.7-17.1c-13.6,0-24.6,2.3-33.6,6.9
		c-8.7,4.5-15.9,10.2-21.4,16.9c-5.5,6.9-9.2,14.1-11.4,21.6c-2.2,7.5-3.5,14.2-3.8,20.3h137.4C608.1,291.3,600.7,275.4,590.5,264.2
		z"/>
	
		<rect id="XMLID_00000021799330496926521580000004379645604653111990_" x="455.4" y="103.3" class="st0" width="172.1" height="41.8"/>
</g>
</svg>
