<?xml version="1.0" encoding="utf-8"?>
<!-- Generator: Adobe Illustrator 27.1.1, SVG Export Plug-In . SVG Version: 6.00 Build 0)  -->
<svg version="1.1" id="Social_Icons" xmlns="http://www.w3.org/2000/svg" xmlns:xlink="http://www.w3.org/1999/xlink" x="0px"
	 y="0px" viewBox="0 0 512 512" style="enable-background:new 0 0 512 512;" xml:space="preserve">
<style type="text/css">
	.st0{fill-rule:evenodd;clip-rule:evenodd;fill:#FFFFFF;}
</style>
<g id="_x37__stroke">
	<g id="Instagram_1_">
		<path id="Instagram" class="st0" d="M419.4,122.6c0,16.6-13.4,30-30,30c-16.6,0-30-13.4-30-30s13.4-30,30-30
			C406,92.6,419.4,106,419.4,122.6z M256,339.3c-46,0-83.3-37.3-83.3-83.3s37.3-83.3,83.3-83.3s83.3,37.3,83.3,83.3
			S302,339.3,256,339.3z M256,127.6c-70.9,0-128.4,57.5-128.4,128.4S185.1,384.4,256,384.4S384.4,326.9,384.4,256
			C384.4,185.1,326.9,127.6,256,127.6z M256,51c66.8,0,74.7,0.3,101,1.5c24.4,1.1,37.6,5.2,46.4,8.6c11.7,4.5,20,10,28.7,18.7
			c8.8,8.7,14.2,17.1,18.7,28.7c3.4,8.8,7.5,22,8.6,46.4c1.2,26.4,1.5,34.3,1.5,101s-0.3,74.7-1.5,101c-1.1,24.4-5.2,37.6-8.6,46.4
			c-4.5,11.7-10,20-18.7,28.7c-8.7,8.8-17.1,14.2-28.7,18.7c-8.8,3.4-22,7.5-46.4,8.6c-26.4,1.2-34.3,1.5-101,1.5
			c-66.8,0-74.7-0.3-101-1.5c-24.4-1.1-37.6-5.2-46.4-8.6c-11.7-4.5-20-10-28.7-18.7c-8.7-8.7-14.2-17.1-18.7-28.7
			c-3.4-8.8-7.5-22-8.6-46.4c-1.2-26.4-1.5-34.3-1.5-101c0-66.8,0.3-74.7,1.5-101c1.1-24.4,5.2-37.6,8.6-46.4
			c4.5-11.7,10-20,18.7-28.7c8.7-8.8,17.1-14.2,28.7-18.7c8.8-3.4,22-7.5,46.4-8.6C181.3,51.3,189.2,51,256,51z M256,6
			c-67.9,0-76.4,0.3-103.1,1.5c-26.6,1.2-44.8,5.4-60.7,11.6C75.8,25.5,61.9,34.1,48,48S25.5,75.8,19.1,92.2
			c-6.2,15.9-10.4,34.1-11.6,60.7C6.3,179.6,6,188.1,6,256s0.3,76.4,1.5,103.1c1.2,26.6,5.4,44.8,11.6,60.7
			c6.4,16.4,14.9,30.4,28.8,44.3s27.8,22.4,44.3,28.8c15.9,6.2,34.1,10.4,60.7,11.6c26.7,1.2,35.2,1.5,103.1,1.5s76.4-0.3,103.1-1.5
			c26.6-1.2,44.8-5.4,60.7-11.6c16.4-6.4,30.4-14.9,44.3-28.8c13.9-13.9,22.4-27.8,28.8-44.3c6.2-15.9,10.4-34.1,11.6-60.7
			c1.2-26.7,1.5-35.2,1.5-103.1s-0.3-76.4-1.5-103.1c-1.2-26.6-5.4-44.8-11.6-60.7C486.5,75.8,477.9,61.9,464,48
			c-13.9-13.9-27.8-22.4-44.3-28.8c-15.9-6.2-34.1-10.4-60.7-11.6C332.4,6.3,323.9,6,256,6z"/>
	</g>
</g>
</svg>
