<?xml version="1.0" encoding="utf-8"?>
<!-- Generator: Adobe Illustrator 27.1.1, SVG Export Plug-In . SVG Version: 6.00 Build 0)  -->
<svg version="1.1" id="Layer_1" xmlns="http://www.w3.org/2000/svg" xmlns:xlink="http://www.w3.org/1999/xlink" x="0px" y="0px"
	 viewBox="0 0 512 512" style="enable-background:new 0 0 512 512;" xml:space="preserve">
<style type="text/css">
	.st0{fill:#FFFFFF;}
</style>
<g>
	<path class="st0" d="M174.5,505.5c0-2.4,0-4.6,0-6.9c0-106.3,0-212.6,0-318.9c0-3-0.2-5.3,4.1-5.3c31.4,0.2,62.9,0.1,94.3,0.1
		c0.8,0,1.6,0.2,2.9,0.4c0,13.8,0,27.4,0,41.2c0.4,0.1,0.7,0.3,1.1,0.4c3.9-5.1,7.7-10.5,11.8-15.5c12-14.8,27.2-25.7,44.9-32.2
		c9.7-3.6,20.2-5.7,30.4-6.2c14-0.6,28.3-0.4,42.2,2c22.7,3.9,42.8,13.9,59.3,30.4c15.7,15.5,26.1,34.2,31.7,55.2
		c3,11.2,4.8,22.6,6.6,34c1.2,7.9,1.8,16,1.8,23.9c0.1,64.2,0.1,128.4,0.1,192.5c0,1.6-0.1,3.2-0.2,5.2c-1.9,0-3.5,0-5,0
		c-30.3,0-60.5-0.1-90.8,0.1c-5,0-5.9-1.7-5.9-6.2c0.1-59,0.3-118.2-0.1-177.2c-0.1-10.4-1.1-21.1-3.8-31.1
		c-4.8-17.5-15.9-30.1-33.5-36.5c-14.8-5.4-29.8-6.4-45-2.6c-16.8,4.2-28.3,15.4-37,30.1c-6.7,11.4-8,23.9-8.1,36.4
		c-0.4,59.9-0.2,119.8-0.2,179.7c0,2.3,0,4.5,0,7C242.1,505.5,208.6,505.5,174.5,505.5z"/>
	<path class="st0" d="M111,341.5c0,52.6-0.1,105.3,0.1,157.9c0,4.7-1,6.5-6.2,6.4c-30.1-0.3-60.2-0.3-90.3,0c-4.9,0-6-1.7-6-6.2
		c0.1-105.7,0.1-211.6,0-317.3c0-4.2,1.2-5.7,5.5-5.7c30.4,0.2,60.8,0.2,91.3,0c4.7,0,5.6,1.8,5.6,6C111,235.6,111,288.6,111,341.5z
		"/>
	<path class="st0" d="M58.6,8c32.5-0.8,51.9,22.8,52,51.7c0.1,29.6-20.6,51.7-53.2,51.6c-30.3,0-51.7-21.7-51.6-52.4
		C5.9,30.2,26.7,7,58.6,8z"/>
</g>
</svg>
